<svg width="10" height="13" viewBox="0 0 10 13" fill="none" xmlns="http://www.w3.org/2000/svg">
<path d="M9.01495 7.30549C9.46084 6.86063 9.46084 6.13937 9.01495 5.69451L3.64178 0.333646C3.42766 0.120017 3.13725 -3.57628e-07 2.83444 -3.57628e-07H1.49115C1.02936 -3.57628e-07 0.613031 0.277541 0.43631 0.703207C0.259588 1.12887 0.357271 1.61884 0.68381 1.94463L3.88694 6.00709L3.8817 6.99814L0.68381 11.0554C0.357271 11.3812 0.259588 11.8711 0.43631 12.2968C0.613031 12.7225 1.02936 13 1.49115 13H2.83444C3.13725 13 3.42766 12.88 3.64178 12.6664L9.01495 7.30549Z" fill="#4C4D50"/>
</svg>
