<svg width="25" height="25" viewBox="0 0 25 25" fill="none" xmlns="http://www.w3.org/2000/svg">
<path d="M24.5672 15.2396L22.96 14.0157C22.4929 13.6601 22.2631 13.086 22.2631 12.499C22.2631 11.9123 22.4933 11.3377 22.9601 10.9823L24.5694 9.75732C25.008 9.41982 25.1278 8.82085 24.8486 8.32192L22.3947 4.1875C22.1326 3.72085 21.5581 3.48125 20.9752 3.69062L19.0721 4.43461C18.5216 4.64979 17.8991 4.56037 17.3851 4.2687C16.8563 3.96866 16.4649 3.46897 16.3764 2.86748L16.0952 0.95835C16.0256 0.4125 15.5378 0 14.9613 0H10.0407C9.46407 0 8.97739 0.4125 8.90889 0.95L8.62672 2.86803C8.53807 3.47056 8.16192 3.96412 7.63258 4.26528C7.12091 4.55637 6.48666 4.65267 5.93841 4.43831L4.02357 3.6896C3.50043 3.49272 2.87465 3.71353 2.61471 4.17812L0.157634 8.31772C-0.132239 8.79482 -0.0124488 9.4146 0.435775 9.76045L2.04384 10.9849C2.51047 11.3403 2.73992 11.9135 2.73992 12.5C2.73992 13.0872 2.51015 13.661 2.04293 14.0167L0.433618 15.2417C-0.00497752 15.5802 -0.123715 16.1792 0.155478 16.6771L2.6094 20.8115C2.87149 21.2771 3.44056 21.5188 4.02888 21.3083L5.93184 20.5644C6.4824 20.3492 7.10451 20.438 7.6186 20.7298C8.14685 21.0297 8.53799 21.5294 8.62653 22.1304L8.90784 24.0396C8.97734 24.5875 9.46407 25 10.0417 25H14.9623C15.5389 25 16.0267 24.5875 16.0952 24.05L16.3774 22.1322C16.466 21.53 16.8411 21.0368 17.3701 20.7358C17.8824 20.4443 18.5179 20.3475 19.0669 20.5622L20.9805 21.3104C21.1153 21.3614 21.2554 21.3875 21.3998 21.3875C21.8149 21.3875 22.1967 21.1667 22.3893 20.8229L24.8539 16.6667C25.1278 16.1792 25.0079 15.5802 24.5672 15.2396ZM12.5009 16.6667C10.1412 16.6667 8.22214 14.7979 8.22214 12.5C8.22214 10.2021 10.1412 8.33335 12.5009 8.33335C14.8607 8.33335 16.7798 10.2021 16.7798 12.5C16.7798 14.7979 14.8607 16.6667 12.5009 16.6667Z" fill="#CBD7FF"/>
</svg>
