<svg width="30" height="25" viewBox="0 0 30 25" fill="none" xmlns="http://www.w3.org/2000/svg">
<mask id="path-1-inside-1" fill="white">
<path d="M21.0993 0H8.06738C3.84699 0 0.383533 3.82469 0.0297647 8.04211C-0.00294567 8.43207 0.317231 8.75 0.708555 8.75H1.54216C1.73007 8.75 1.91029 8.82501 2.04317 8.95853L5.37758 12.3091C5.65428 12.5871 5.65428 13.0379 5.37758 13.3159L2.04317 16.6665C1.91029 16.8 1.73007 16.875 1.54216 16.875H0.708555C0.317231 16.875 -0.00320536 17.1933 0.0302217 17.5832C0.386505 21.7389 3.84881 25 8.06738 25H21.0993C25.5548 25 29.1667 21.3623 29.1667 16.875V14.6875V12.5V10.3125V8.125C29.1667 3.63769 25.5548 0 21.0993 0Z"/>
</mask>
<path d="M21.0993 0H8.06738C3.84699 0 0.383533 3.82469 0.0297647 8.04211C-0.00294567 8.43207 0.317231 8.75 0.708555 8.75H1.54216C1.73007 8.75 1.91029 8.82501 2.04317 8.95853L5.37758 12.3091C5.65428 12.5871 5.65428 13.0379 5.37758 13.3159L2.04317 16.6665C1.91029 16.8 1.73007 16.875 1.54216 16.875H0.708555C0.317231 16.875 -0.00320536 17.1933 0.0302217 17.5832C0.386505 21.7389 3.84881 25 8.06738 25H21.0993C25.5548 25 29.1667 21.3623 29.1667 16.875V14.6875V12.5V10.3125V8.125C29.1667 3.63769 25.5548 0 21.0993 0Z" fill="url(#paint0_radial)"/>
<path d="M0.0302217 17.5832L2.52108 17.3697L2.52108 17.3696L0.0302217 17.5832ZM0.0297647 8.04211L-2.46149 7.83314L0.0297647 8.04211ZM5.37758 12.3091L3.60556 14.0726L3.60556 14.0726L5.37758 12.3091ZM5.37758 13.3159L3.60556 11.5524L3.60556 11.5524L5.37758 13.3159ZM2.04317 8.95853L0.271138 10.722L0.271141 10.722L2.04317 8.95853ZM2.04317 16.6665L3.81519 18.43L3.81519 18.43L2.04317 16.6665ZM8.06738 2.5H21.0993V-2.5H8.06738V2.5ZM21.0993 22.5H8.06738V27.5H21.0993V22.5ZM8.06738 22.5C5.17261 22.5 2.76872 20.2581 2.52108 17.3697L-2.46064 17.7968C-1.99571 23.2197 2.525 27.5 8.06738 27.5V22.5ZM26.6667 16.875C26.6667 19.9984 24.1573 22.5 21.0993 22.5V27.5C26.9522 27.5 31.6667 22.7262 31.6667 16.875H26.6667ZM21.0993 2.5C24.1573 2.5 26.6667 5.00159 26.6667 8.125H31.6667C31.6667 2.27378 26.9522 -2.5 21.0993 -2.5V2.5ZM8.06738 -2.5C2.29522 -2.5 -2.02151 2.58798 -2.46149 7.83314L2.52102 8.25108C2.78857 5.0614 5.39877 2.5 8.06738 2.5V-2.5ZM3.60556 14.0726C2.91162 13.3753 2.91162 12.2497 3.60556 11.5524L7.14961 15.0794C8.39694 13.8261 8.39694 11.7989 7.14961 10.5456L3.60556 14.0726ZM0.271141 10.722L3.60556 14.0726L7.14961 10.5456L3.81519 7.19503L0.271141 10.722ZM1.54216 11.25C1.06312 11.25 0.606162 11.0587 0.271138 10.722L3.8152 7.19503C3.21442 6.59135 2.39702 6.25 1.54216 6.25V11.25ZM0.708555 11.25H1.54216V6.25H0.708555V11.25ZM1.54216 14.375H0.708555V19.375H1.54216V14.375ZM0.271145 14.903C0.606166 14.5663 1.06312 14.375 1.54216 14.375V19.375C2.39702 19.375 3.21442 19.0336 3.81519 18.43L0.271145 14.903ZM3.60556 11.5524L0.271141 14.903L3.81519 18.43L7.14961 15.0794L3.60556 11.5524ZM26.6667 8.125V10.3125H31.6667V8.125H26.6667ZM26.6667 10.3125V12.5H31.6667V10.3125H26.6667ZM26.6667 12.5V14.6875H31.6667V12.5H26.6667ZM26.6667 14.6875V16.875H31.6667V14.6875H26.6667ZM-2.46149 7.83314C-2.62811 9.81949 -1.00335 11.25 0.708555 11.25V6.25C1.63781 6.25 2.62222 7.04464 2.52102 8.25108L-2.46149 7.83314ZM2.52108 17.3696C2.62487 18.5802 1.63704 19.375 0.708555 19.375V14.375C-1.00258 14.375 -2.63128 15.8064 -2.46064 17.7968L2.52108 17.3696Z" fill="#4F351D" mask="url(#path-1-inside-1)"/>
<path d="M10.8333 18.3333C21.4583 18.3333 11.2499 7.5 21.6666 7.5" stroke="black" stroke-width="2.08333" stroke-linecap="round"/>
<defs>
<radialGradient id="paint0_radial" cx="0" cy="0" r="1" gradientUnits="userSpaceOnUse" gradientTransform="translate(14.5833 12.5) rotate(90) scale(18.3333 21.3889)">
<stop stop-color="white"/>
<stop offset="1" stop-color="#FFEFD7"/>
</radialGradient>
</defs>
</svg>
