<svg width="32" height="59" viewBox="0 0 32 59" fill="none" xmlns="http://www.w3.org/2000/svg">
<path d="M29.5 29.5V15.75C29.5 11.7095 26.7501 8.18753 22.8303 7.20757L3.24254 2.31063C2.61139 2.15285 2 2.63021 2 3.28078V8.875V15.75V29.5V43.25V50.125V55.7192C2 56.3698 2.61139 56.8472 3.24254 56.6894L22.8303 51.7924C26.7501 50.8125 29.5 47.2905 29.5 43.25V29.5Z" fill="#F4F9FF" stroke="black" stroke-width="3.5"/>
<path d="M13.2507 23.8667C13.2507 23.388 13.6387 23 14.1173 23H16.8827C17.3613 23 17.7493 23.388 17.7493 23.8667V26.0924C17.7493 26.8103 18.3313 27.3924 19.0493 27.3924H21.1333C21.612 27.3924 22 27.7804 22 28.259V30.8118C22 31.2905 21.612 31.6785 21.1333 31.6785H19.0493C18.3313 31.6785 17.7493 32.2605 17.7493 32.9785V35.1333C17.7493 35.612 17.3613 36 16.8827 36H14.1173C13.6387 36 13.2507 35.612 13.2507 35.1333V32.9785C13.2507 32.2605 12.6687 31.6785 11.9507 31.6785H9.86667C9.38802 31.6785 9 31.2905 9 30.8118V28.259C9 27.7804 9.38802 27.3924 9.86667 27.3924H11.9507C12.6687 27.3924 13.2507 26.8103 13.2507 26.0924V23.8667Z" fill="black"/>
</svg>
