<svg width="64" height="64" viewBox="0 0 64 64" fill="none" xmlns="http://www.w3.org/2000/svg">
<path d="M62 27V59.5C62 60.8807 60.8807 62 59.5 62H27C25.6193 62 24.5 60.8807 24.5 59.5V54.5H19.5C18.1193 54.5 17 53.3807 17 52V47H12C10.6193 47 9.5 45.8807 9.5 44.5V39.5H4.5C3.11929 39.5 2 38.3807 2 37V32V4.5C2 3.11929 3.11929 2 4.5 2H32H37C38.3807 2 39.5 3.11929 39.5 4.5V9.5H44.5C45.8807 9.5 47 10.6193 47 12V17H52C53.3807 17 54.5 18.1193 54.5 19.5V24.5H59.5C60.8807 24.5 62 25.6193 62 27Z" fill="#DBDCFF"/>
<path d="M39.5 9.5H12C10.6193 9.5 9.5 10.6193 9.5 12V39.5M39.5 9.5H44.5C45.8807 9.5 47 10.6193 47 12V17M39.5 9.5V4.5C39.5 3.11929 38.3807 2 37 2H32H4.5C3.11929 2 2 3.11929 2 4.5V32V37C2 38.3807 3.11929 39.5 4.5 39.5H9.5M9.5 39.5V44.5C9.5 45.8807 10.6193 47 12 47H17M47 17H19.5C18.1193 17 17 18.1193 17 19.5V47M47 17H52C53.3807 17 54.5 18.1193 54.5 19.5V24.5M17 47V52C17 53.3807 18.1193 54.5 19.5 54.5H24.5M54.5 24.5H59.5C60.8807 24.5 62 25.6193 62 27V59.5C62 60.8807 60.8807 62 59.5 62H27C25.6193 62 24.5 60.8807 24.5 59.5V54.5M54.5 24.5H27C25.6193 24.5 24.5 25.6193 24.5 27V54.5" stroke="black" stroke-width="2.5"/>
</svg>
