<svg width="56" height="56" viewBox="0 0 56 56" fill="none" xmlns="http://www.w3.org/2000/svg">
<rect x="1.25" y="1.25" width="53.5" height="53.5" rx="5.75" fill="#ECEDFF" stroke="black" stroke-width="2.5"/>
<rect x="8" y="8" width="10.3219" height="10.3219" rx="2.68657" fill="#6E56BC"/>
<rect x="9" y="9" width="8.32193" height="8.32193" rx="1.68657" stroke="black" stroke-opacity="0.15" stroke-width="2"/>
<rect x="8" y="22.8391" width="10.3219" height="10.3219" rx="2.68657" fill="#C6B7EC"/>
<rect x="9" y="23.8391" width="8.32193" height="8.32193" rx="1.68657" stroke="black" stroke-opacity="0.15" stroke-width="2"/>
<rect x="8" y="37.6777" width="10.3219" height="10.3219" rx="2.68657" fill="#9F8DDF"/>
<rect x="9" y="38.6777" width="8.32193" height="8.32193" rx="1.68657" stroke="black" stroke-opacity="0.15" stroke-width="2"/>
<rect x="22.839" y="8" width="10.3219" height="10.3219" rx="2.68657" fill="#EAE3FF"/>
<rect x="23.839" y="9" width="8.32193" height="8.32193" rx="1.68657" stroke="black" stroke-opacity="0.15" stroke-width="2"/>
<rect x="22.839" y="22.8391" width="10.3219" height="10.3219" rx="2.68657" fill="#EAE3FF"/>
<rect x="23.839" y="23.8391" width="8.32193" height="8.32193" rx="1.68657" stroke="black" stroke-opacity="0.15" stroke-width="2"/>
<rect x="22.839" y="37.6777" width="10.3219" height="10.3219" rx="2.68657" fill="#9F8DDF"/>
<rect x="23.839" y="38.6777" width="8.32193" height="8.32193" rx="1.68657" stroke="black" stroke-opacity="0.15" stroke-width="2"/>
<rect x="37.678" y="8" width="10.3219" height="10.3219" rx="2.68657" fill="#C6B7EC"/>
<rect x="38.678" y="9" width="8.32193" height="8.32193" rx="1.68657" stroke="black" stroke-opacity="0.15" stroke-width="2"/>
<rect x="37.678" y="22.8391" width="10.3219" height="10.3219" rx="2.68657" fill="#6E56BC"/>
<rect x="38.678" y="23.8391" width="8.32193" height="8.32193" rx="1.68657" stroke="black" stroke-opacity="0.15" stroke-width="2"/>
<rect x="37.678" y="37.6777" width="10.3219" height="10.3219" rx="2.68657" fill="#EAE3FF"/>
<rect x="38.678" y="38.6777" width="8.32193" height="8.32193" rx="1.68657" stroke="black" stroke-opacity="0.15" stroke-width="2"/>
</svg>
