<svg width="46" height="59" viewBox="0 0 46 59" fill="none" xmlns="http://www.w3.org/2000/svg">
<path d="M2 18.3368C2 9.34203 11.402 2 23 2C34.598 2 44 9.34203 44 18.3368V29.5V40.6632C44 49.6858 34.598 57 23 57C11.402 57 2 49.6858 2 40.6632V29.5V18.3368Z" fill="#CAE8F1"/>
<path d="M44 18.3368C44 27.3316 34.598 34.6736 23 34.6736C11.402 34.6736 2 27.3316 2 18.3368M44 18.3368C44 9.34203 34.598 2 23 2C11.402 2 2 9.34203 2 18.3368M44 18.3368V29.5M2 18.3368V29.5M44 29.5C44 38.5226 34.598 45.8368 23 45.8368C11.402 45.8368 2 38.5226 2 29.5M44 29.5V40.6632C44 49.6858 34.598 57 23 57C11.402 57 2 49.6858 2 40.6632V29.5" stroke="black" stroke-width="2.5"/>
</svg>
