<svg width="49" height="49" viewBox="0 0 49 49" fill="none" xmlns="http://www.w3.org/2000/svg">
<path d="M47 26.3V45.2C47 46.1941 46.1941 47 45.2 47H26.3C25.3059 47 24.5 46.1941 24.5 45.2V35.75H15.05C14.0559 35.75 13.25 34.9441 13.25 33.95V24.5H3.8C2.80589 24.5 2 23.6941 2 22.7V3.8C2 2.80589 2.80589 2 3.8 2H22.7C23.6941 2 24.5 2.80589 24.5 3.8V13.25H33.95C34.9441 13.25 35.75 14.0559 35.75 15.05V24.5H45.2C46.1941 24.5 47 25.3059 47 26.3Z" fill="#FFD2A8"/>
<path d="M35.75 24.5H45.2C46.1941 24.5 47 25.3059 47 26.3V45.2C47 46.1941 46.1941 47 45.2 47H26.3C25.3059 47 24.5 46.1941 24.5 45.2V35.75M35.75 24.5V15.05C35.75 14.0559 34.9441 13.25 33.95 13.25H24.5M35.75 24.5H26.3C25.3059 24.5 24.5 25.3059 24.5 26.3V35.75M24.5 35.75H15.05C14.0559 35.75 13.25 34.9441 13.25 33.95V24.5M24.5 13.25H15.05C14.0559 13.25 13.25 14.0559 13.25 15.05V24.5M24.5 13.25V3.8C24.5 2.80589 23.6941 2 22.7 2H3.8C2.80589 2 2 2.80589 2 3.8V22.7C2 23.6941 2.80589 24.5 3.8 24.5H13.25" stroke="black" stroke-width="2.5"/>
</svg>
