<svg width="46" height="59" viewBox="0 0 46 59" fill="none" xmlns="http://www.w3.org/2000/svg">
<path d="M29.5 29.5V15.75C29.5 11.7095 26.7501 8.18753 22.8303 7.20757L3.24254 2.31063C2.61139 2.15285 2 2.63021 2 3.28078V8.875V15.75V29.5V43.25V50.125V55.7192C2 56.3698 2.61139 56.8472 3.24254 56.6894L22.8303 51.7924C26.7501 50.8125 29.5 47.2905 29.5 43.25V29.5Z" fill="#F4F9FF" stroke="black" stroke-width="3.5"/>
<path d="M13.2507 23.8667C13.2507 23.388 13.6387 23 14.1173 23H16.8827C17.3613 23 17.7493 23.388 17.7493 23.8667V26.0924C17.7493 26.8103 18.3313 27.3924 19.0493 27.3924H21.1333C21.612 27.3924 22 27.7804 22 28.259V30.8118C22 31.2905 21.612 31.6785 21.1333 31.6785H19.0493C18.3313 31.6785 17.7493 32.2605 17.7493 32.9785V35.1333C17.7493 35.612 17.3613 36 16.8827 36H14.1173C13.6387 36 13.2507 35.612 13.2507 35.1333V32.9785C13.2507 32.2605 12.6687 31.6785 11.9507 31.6785H9.86667C9.38802 31.6785 9 31.2905 9 30.8118V28.259C9 27.7804 9.38802 27.3924 9.86667 27.3924H11.9507C12.6687 27.3924 13.2507 26.8103 13.2507 26.0924V23.8667Z" fill="black"/>
<path d="M39.8883 30.1256C40.1398 29.865 40.1398 29.4425 39.8883 29.1819L36.8573 26.0416C36.7365 25.9164 36.5727 25.8461 36.4019 25.8461H35.6441C35.3836 25.8461 35.1488 26.0087 35.0491 26.258C34.9494 26.5074 35.0045 26.7944 35.1887 26.9853L36.9956 29.365L36.9926 29.9456L35.1887 32.3223C35.0045 32.5131 34.9494 32.8001 35.0491 33.0495C35.1488 33.2988 35.3836 33.4614 35.6441 33.4614H36.4019C36.5727 33.4614 36.7365 33.3911 36.8573 33.266L39.8883 30.1256Z" fill="black"/>
<path d="M45.7797 30.2305C46.0731 29.912 46.0731 29.3956 45.7797 29.0771L42.2435 25.2389C42.1026 25.0859 41.9115 25 41.7122 25H40.8282C40.5242 25 40.2503 25.1987 40.134 25.5035C40.0177 25.8083 40.0819 26.1591 40.2968 26.3923L42.4049 29.3009L42.4014 30.0105L40.2968 32.9153C40.0819 33.1486 40.0177 33.4994 40.134 33.8041C40.2503 34.1089 40.5242 34.3076 40.8282 34.3076H41.7122C41.9115 34.3076 42.1026 34.2217 42.2435 34.0687L45.7797 30.2305Z" fill="#808080"/>
</svg>
