<svg width="52" height="50" viewBox="0 0 52 50" fill="none" xmlns="http://www.w3.org/2000/svg">
<path d="M25.034 30.9446L25.1074 30.8473C25.1362 30.8092 25.1694 30.7745 25.2079 30.7432C25.2179 30.7351 25.2301 30.7253 25.2442 30.714C25.344 30.634 25.5393 30.4773 25.7127 30.3022L24.4691 29.0709L25.7127 30.3022L29.7435 26.2313L30.9627 25L29.7435 23.7687L25.7127 19.6978C25.5393 19.5227 25.344 19.366 25.2442 19.286C25.2301 19.2747 25.2179 19.2649 25.2079 19.2568C25.1694 19.2255 25.1362 19.1908 25.1074 19.1527L25.034 19.0554L24.9477 18.9692C24.8395 18.8612 24.75 18.6931 24.75 18.4499V10.4403V2.43072C24.75 2.11552 24.9024 1.9154 25.0674 1.81853C25.2242 1.72654 25.3832 1.72312 25.5497 1.83257L37.7404 9.84708C37.7992 9.88572 37.8462 9.92999 37.8845 9.97856L37.9583 10.072L38.0441 10.1546C38.1565 10.2628 38.25 10.4335 38.25 10.6819V18.6916V23.2988V25V26.7012V31.3084V39.3181C38.25 39.5665 38.1565 39.7372 38.0442 39.8454L37.9584 39.928L37.8845 40.0214C37.8462 40.07 37.7992 40.1143 37.7404 40.1529L25.5497 48.1674C25.3832 48.2769 25.2242 48.2735 25.0674 48.1815C24.9024 48.0846 24.75 47.8845 24.75 47.5693V39.5597V31.5501C24.75 31.3069 24.8395 31.1388 24.9477 31.0308L25.034 30.9446Z" fill="#F3FFE9" stroke="black" stroke-width="3.5"/>
<path d="M2.28974 36.0812C1.23651 36.7337 1.23651 38.2659 2.28974 38.9185L14.5407 46.5089C15.6525 47.1978 17.0886 46.3982 17.0886 45.0903V29.9094C17.0886 28.6015 15.6525 27.8019 14.5407 28.4907L2.28974 36.0812Z" fill="#D8F8FF"/>
<path d="M3.07976 37.6434C2.97317 37.5774 2.97317 37.4223 3.07976 37.3562L15.3307 29.7658C15.3695 29.7418 15.3962 29.7379 15.4154 29.7378C15.4396 29.7377 15.4704 29.7443 15.5018 29.7618C15.5333 29.7794 15.5551 29.8021 15.5678 29.8227C15.5778 29.8391 15.5886 29.8638 15.5886 29.9094V45.0903C15.5886 45.1359 15.5778 45.1606 15.5678 45.177C15.5551 45.1976 15.5333 45.2203 15.5019 45.2378C15.4704 45.2554 15.4396 45.2619 15.4154 45.2618C15.3962 45.2617 15.3695 45.2579 15.3307 45.2338L3.07976 37.6434Z" stroke="black" stroke-opacity="0.5" stroke-width="3"/>
<path d="M2.28935 11.1749C1.2363 11.8277 1.23672 13.36 2.29013 14.0122L14.5411 21.598C15.6529 22.2865 17.0886 21.4868 17.0886 20.1791V4.99826C17.0886 3.69016 15.6521 2.89057 14.5403 3.57982L2.28935 11.1749Z" fill="#DEFFE5"/>
<path d="M3.0798 12.7369C2.97319 12.6709 2.97315 12.5158 3.07972 12.4498L15.3307 4.8547C15.3695 4.83064 15.3962 4.8268 15.4154 4.8267C15.4395 4.82657 15.4703 4.83314 15.5018 4.85067C15.5333 4.86821 15.5551 4.89093 15.5678 4.91152C15.5778 4.9279 15.5886 4.95259 15.5886 4.99826V20.1791C15.5886 20.2248 15.5778 20.2494 15.5678 20.2658C15.5552 20.2864 15.5334 20.3091 15.5019 20.3267C15.4704 20.3442 15.4396 20.3508 15.4154 20.3507C15.3962 20.3506 15.3696 20.3467 15.3308 20.3227L3.0798 12.7369Z" stroke="black" stroke-opacity="0.5" stroke-width="3"/>
<circle cx="49" cy="25" r="3" fill="black"/>
</svg>
