<svg width="88" height="74" viewBox="0 0 88 74" fill="none" xmlns="http://www.w3.org/2000/svg">
<path d="M72 30.811V69.439C72 70.8534 70.8534 72 69.439 72H30.811C29.3966 72 28.25 70.8534 28.25 69.439V63.25H22.061C20.6466 63.25 19.5 62.1034 19.5 60.689V54.5H13.311C11.8966 54.5 10.75 53.3534 10.75 51.939V45.75H4.56098C3.14659 45.75 2 44.6034 2 43.189V37V4.56097C2 3.14659 3.14659 2 4.56098 2H37H43.189C44.6034 2 45.75 3.14659 45.75 4.56098V10.75H51.939C53.3534 10.75 54.5 11.8966 54.5 13.311V19.5H60.689C62.1034 19.5 63.25 20.6466 63.25 22.061V28.25H69.439C70.8534 28.25 72 29.3966 72 30.811Z" fill="url(#paint0_linear)"/>
<path d="M45.75 10.75H13.311C11.8966 10.75 10.75 11.8966 10.75 13.311V45.75M45.75 10.75H51.939C53.3534 10.75 54.5 11.8966 54.5 13.311V19.5M45.75 10.75V4.56098C45.75 3.14659 44.6034 2 43.189 2H37H4.56098C3.14659 2 2 3.14659 2 4.56097V37V43.189C2 44.6034 3.14659 45.75 4.56098 45.75H10.75M10.75 45.75V51.939C10.75 53.3534 11.8966 54.5 13.311 54.5H19.5M54.5 19.5H22.061C20.6466 19.5 19.5 20.6466 19.5 22.061V54.5M54.5 19.5H60.689C62.1034 19.5 63.25 20.6466 63.25 22.061V28.25M19.5 54.5V60.689C19.5 62.1034 20.6466 63.25 22.061 63.25H28.25M63.25 28.25H69.439C70.8534 28.25 72 29.3966 72 30.811V69.439C72 70.8534 70.8534 72 69.439 72H30.811C29.3966 72 28.25 70.8534 28.25 69.439V63.25M63.25 28.25H30.811C29.3966 28.25 28.25 29.3966 28.25 30.811V63.25" stroke="black" stroke-width="3.5"/>
<path d="M81.8883 37.1256C82.1398 36.865 82.1398 36.4425 81.8883 36.1819L78.8573 33.0416C78.7365 32.9164 78.5727 32.8461 78.4019 32.8461H77.6441C77.3836 32.8461 77.1488 33.0087 77.0491 33.258C76.9494 33.5074 77.0045 33.7944 77.1887 33.9853L78.9956 36.365L78.9926 36.9456L77.1887 39.3223C77.0045 39.5131 76.9494 39.8001 77.0491 40.0495C77.1488 40.2988 77.3836 40.4614 77.6441 40.4614H78.4019C78.5727 40.4614 78.7365 40.3911 78.8573 40.266L81.8883 37.1256Z" fill="black"/>
<path d="M87.7797 37.2305C88.0731 36.912 88.0731 36.3956 87.7797 36.0771L84.2435 32.2389C84.1026 32.0859 83.9115 32 83.7122 32H82.8282C82.5242 32 82.2503 32.1987 82.134 32.5035C82.0177 32.8083 82.0819 33.1591 82.2968 33.3923L84.4049 36.3009L84.4014 37.0105L82.2968 39.9153C82.0819 40.1486 82.0177 40.4994 82.134 40.8041C82.2503 41.1089 82.5242 41.3076 82.8282 41.3076H83.7122C83.9115 41.3076 84.1026 41.2217 84.2435 41.0687L87.7797 37.2305Z" fill="#808080"/>
<defs>
<linearGradient id="paint0_linear" x1="3.06707" y1="3.06707" x2="71.3597" y2="71.3597" gradientUnits="userSpaceOnUse">
<stop stop-color="#5F64D7"/>
<stop offset="1" stop-color="#F1FDFF"/>
</linearGradient>
</defs>
</svg>
