<svg width="73" height="60" viewBox="0 0 73 60" fill="none" xmlns="http://www.w3.org/2000/svg">
<path d="M66.7271 30.1256C66.9787 29.865 66.9787 29.4425 66.7271 29.1819L63.6961 26.0416C63.5754 25.9164 63.4115 25.8461 63.2407 25.8461H62.483C62.2225 25.8461 61.9876 26.0087 61.8879 26.258C61.7883 26.5074 61.8434 26.7944 62.0276 26.9853L63.8344 29.365L63.8315 29.9456L62.0276 32.3223C61.8434 32.5131 61.7883 32.8001 61.8879 33.0495C61.9876 33.2988 62.2225 33.4614 62.483 33.4614H63.2407C63.4115 33.4614 63.5754 33.3911 63.6961 33.266L66.7271 30.1256Z" fill="black"/>
<path d="M72.6185 30.2305C72.912 29.912 72.912 29.3956 72.6185 29.0771L69.0824 25.2389C68.9415 25.0859 68.7503 25 68.5511 25H67.667C67.3631 25 67.0891 25.1987 66.9728 25.5035C66.8565 25.8083 66.9208 26.1591 67.1357 26.3923L69.2437 29.3009L69.2403 30.0105L67.1357 32.9153C66.9208 33.1486 66.8565 33.4994 66.9728 33.8041C67.0891 34.1089 67.3631 34.3076 67.667 34.3076H68.5511C68.7503 34.3076 68.9415 34.2217 69.0824 34.0687L72.6185 30.2305Z" fill="#808080"/>
<path d="M1.75002 7.38038V7.38086L1.75017 52.6231C1.75017 52.6399 1.75887 52.6696 1.7965 52.6926L10.8521 58.2262L9.9502 59.7021L10.8521 58.2262C10.8864 58.2472 10.9084 58.2499 10.924 58.25C10.9452 58.2501 10.9727 58.2444 11 58.2294C11.0274 58.2145 11.041 58.198 11.0456 58.1906L11.0459 58.1901C11.0475 58.1877 11.0519 58.181 11.0519 58.1568V1.84323C11.0519 1.81895 11.0475 1.81234 11.0459 1.80989C11.0457 1.80972 11.0456 1.80957 11.0456 1.80943C11.041 1.80205 11.0274 1.78553 11 1.77059C10.9726 1.75565 10.9452 1.74987 10.924 1.75C10.9083 1.7501 10.8863 1.75286 10.8521 1.77381L1.79632 7.31094C1.7587 7.33394 1.75002 7.36364 1.75002 7.38038Z" fill="#F0F2F7" stroke="black" stroke-width="3.5"/>
<path d="M55.0888 17.7371V17.7375L55.0887 43.4191C55.0887 43.4359 55.08 43.4656 55.0424 43.4886L55.9549 44.9819L55.0424 43.4886L45.9868 49.0223L46.8993 50.5155L45.9868 49.0223C45.9525 49.0432 45.9305 49.0459 45.9149 49.046C45.8937 49.0462 45.8662 49.0404 45.8388 49.0255C45.8115 49.0105 45.7979 48.994 45.7933 48.9866L45.793 48.9862C45.7914 48.9837 45.787 48.9771 45.787 48.9528V12.1999C45.787 12.1756 45.7914 12.169 45.793 12.1666C45.7931 12.1664 45.7932 12.1663 45.7933 12.1661C45.7979 12.1587 45.8115 12.1422 45.8389 12.1273C45.8662 12.1123 45.8937 12.1066 45.9149 12.1067C45.9305 12.1068 45.9525 12.1095 45.9868 12.1305L55.0426 17.6676C55.0802 17.6906 55.0888 17.7203 55.0888 17.7371Z" fill="#F0F2F7" stroke="black" stroke-width="3.5"/>
<path d="M29.2752 28.5755C30.3401 29.2262 30.3401 30.7729 29.2752 31.4236L20.341 36.883C19.229 37.5626 17.8019 36.7622 17.8019 35.459V24.5401C17.8019 23.2368 19.229 22.4365 20.341 23.116L29.2752 28.5755Z" fill="#FFDDD8"/>
<path d="M28.6234 30.357C28.8907 30.1936 28.8907 29.8054 28.6234 29.6421L19.6893 24.1827C19.4101 24.0121 19.0519 24.213 19.0519 24.5401V35.459C19.0519 35.7861 19.4101 35.987 19.6893 35.8164L28.6234 30.357Z" stroke="black" stroke-opacity="0.5" stroke-width="2.5"/>
<path d="M29.2752 48.4226C30.3401 49.0734 30.3401 50.62 29.2752 51.2708L20.341 56.7302C19.229 57.4098 17.8019 56.6094 17.8019 55.3061V44.3873C17.8019 43.084 19.229 42.2836 20.341 42.9632L29.2752 48.4226Z" fill="#FFC8CD"/>
<path d="M28.6234 50.2042C28.8907 50.0408 28.8907 49.6526 28.6234 49.4893L19.6893 44.0298C19.4101 43.8593 19.0519 44.0602 19.0519 44.3873V55.3061C19.0519 55.6333 19.4101 55.8342 19.6893 55.6636L28.6234 50.2042Z" stroke="black" stroke-opacity="0.5" stroke-width="2.5"/>
<path d="M29.2755 8.73258C30.3403 9.38361 30.3399 10.9303 29.2748 11.5807L20.3407 17.0368C19.2286 17.716 17.8019 16.9156 17.8019 15.6125V4.69365C17.8019 3.39017 19.2294 2.58985 20.3414 3.26982L29.2755 8.73258Z" fill="#FFE8D5"/>
<path d="M28.6233 10.5139C28.8906 10.3506 28.8907 9.96243 28.6235 9.79902L19.6894 4.33626C19.4102 4.16558 19.0519 4.36647 19.0519 4.69365V15.6125C19.0519 15.9396 19.41 16.1405 19.6892 15.97L28.6233 10.5139Z" stroke="black" stroke-opacity="0.5" stroke-width="2.5"/>
<path d="M27.5636 38.8086C26.4987 39.4594 26.4987 41.006 27.5636 41.6568L36.4977 47.1162C37.6098 47.7958 39.0368 46.9954 39.0368 45.6921V34.7733C39.0368 33.47 37.6098 32.6696 36.4977 33.3492L27.5636 38.8086Z" fill="#FFDDD8"/>
<path d="M28.2154 40.5901C27.9481 40.4268 27.9481 40.0386 28.2154 39.8752L37.1495 34.4158C37.4286 34.2452 37.7868 34.4461 37.7868 34.7733V45.6921C37.7868 46.0192 37.4286 46.2201 37.1495 46.0496L28.2154 40.5901Z" stroke="black" stroke-opacity="0.5" stroke-width="2.5"/>
<path d="M27.5633 18.9655C26.4986 19.6165 26.499 21.1632 27.5641 21.8136L36.4982 27.2697C37.6103 27.9489 39.0369 27.1485 39.0369 25.8454V14.9266C39.0369 13.6231 37.6095 12.8228 36.4974 13.5027L27.5633 18.9655Z" fill="#FFE8D5"/>
<path d="M28.2156 20.7468C27.9482 20.5836 27.9481 20.1953 28.2154 20.0319L37.1495 14.5692C37.4287 14.3985 37.7869 14.5994 37.7869 14.9266V25.8454C37.7869 26.1725 37.4288 26.3734 37.1497 26.2029L28.2156 20.7468Z" stroke="black" stroke-opacity="0.5" stroke-width="2.5"/>
</svg>
