<svg width="40" height="95" viewBox="0 0 40 95" fill="none" xmlns="http://www.w3.org/2000/svg">
<path d="M1.75 6.58416C1.75 3.91433 3.91433 1.75 6.58416 1.75H20.6931C23.3629 1.75 25.5272 3.91433 25.5272 6.58416V88.4158C25.5272 91.0857 23.3629 93.25 20.6931 93.25H6.58416C3.91433 93.25 1.75 91.0857 1.75 88.4158V6.58416Z" fill="#E4ECFF" stroke="black" stroke-width="3.5"/>
<rect x="7.52478" y="41.386" width="12.2277" height="12.2277" rx="2.82178" fill="#6E789D"/>
<rect x="8.8181" y="42.6793" width="9.64109" height="9.64109" rx="1.52847" stroke="black" stroke-opacity="0.15" stroke-width="2.58663"/>
<rect x="7.52478" y="58.3167" width="12.2277" height="12.2277" rx="2.82178" fill="#AEC0FF"/>
<rect x="8.8181" y="59.61" width="9.64109" height="9.64109" rx="1.52847" stroke="black" stroke-opacity="0.15" stroke-width="2.58663"/>
<rect x="7.52478" y="75.2476" width="12.2277" height="12.2277" rx="2.82178" fill="#859EF9"/>
<rect x="8.8181" y="76.5409" width="9.64109" height="9.64109" rx="1.52847" stroke="black" stroke-opacity="0.15" stroke-width="2.58663"/>
<rect x="7.52478" y="24.4553" width="12.2277" height="12.2277" rx="2.82178" fill="#E2E9FF"/>
<rect x="8.8181" y="25.7486" width="9.64109" height="9.64109" rx="1.52847" stroke="black" stroke-opacity="0.15" stroke-width="2.58663"/>
<rect x="7.52478" y="7.52466" width="12.2277" height="12.2277" rx="2.82178" fill="#859EF9"/>
<rect x="8.8181" y="8.81798" width="9.64109" height="9.64109" rx="1.52847" stroke="black" stroke-opacity="0.15" stroke-width="2.58663"/>
<circle cx="36.2772" cy="48" r="3" fill="black"/>
</svg>
