<svg width="25" height="24" viewBox="0 0 25 24" fill="none" xmlns="http://www.w3.org/2000/svg">
<path d="M23.0038 22.2819L24.3045 21.2132L16.9723 13.9435C15.9919 12.9715 15.985 11.3887 16.957 10.4082L22.0036 5.31717C23.0868 4.22449 23.1677 2.48952 22.191 1.30072L21.1224 0L13.8538 7.3311C12.8817 8.31158 11.2988 8.31836 10.3183 7.34624L3.00049 0.0908306L2.00758 1.14359C0.890706 2.32778 0.921959 4.18658 2.07801 5.33255L7.24056 10.4501C8.2212 11.4222 8.22806 13.0052 7.25587 13.9858L0 21.304L1.05276 22.2969C2.23695 23.4138 4.09575 23.3826 5.24172 22.2265L10.3604 17.0628C11.3324 16.0823 12.9153 16.0753 13.8959 17.0474L18.9873 22.0945C20.08 23.1776 21.815 23.2586 23.0038 22.2819Z" fill="#254671"/>
</svg>
