<svg width="19" height="20" viewBox="0 0 19 20" fill="none" xmlns="http://www.w3.org/2000/svg">
<path fill-rule="evenodd" clip-rule="evenodd" d="M7.83737 20H11.1761C11.4122 20 11.6116 19.8227 11.642 19.5857L11.7946 18.3958C11.8643 17.8526 12.2401 17.4079 12.7311 17.1776C13.17 16.9718 13.5869 16.726 13.9772 16.445C14.406 16.1362 14.9553 16.0242 15.4469 16.2144L16.5747 16.6508C16.7903 16.7342 17.0339 16.6467 17.1493 16.4444L18.8247 13.5069C18.9401 13.3045 18.8932 13.0473 18.714 12.9L17.7785 12.1309C17.37 11.7951 17.1912 11.2576 17.2403 10.7272C17.2831 10.265 17.2853 9.802 17.2482 9.34367C17.2042 8.79865 17.4011 8.24967 17.8328 7.92092L18.8126 7.17478C19.0014 7.03104 19.0553 6.76778 18.9386 6.55989L17.3917 3.80393C17.2741 3.59431 17.02 3.507 16.8006 3.60076L15.8538 4.00537C15.3254 4.23113 14.7217 4.10049 14.2705 3.74233C13.7972 3.36669 13.2801 3.04504 12.7282 2.78652C12.2386 2.55718 11.8633 2.11466 11.7921 1.57335L11.6427 0.438172C11.6118 0.203232 11.4147 0.0272076 11.1805 0.0254565L7.77146 1.30969e-05C7.53931 -0.00171861 7.34074 0.168462 7.30412 0.40052L7.11422 1.604C7.0312 2.13015 6.66074 2.55586 6.18204 2.77741C5.73776 2.98303 5.31109 3.23123 4.90866 3.52024C4.47946 3.82847 3.93019 3.94045 3.43864 3.75026L2.3129 3.31472C2.0973 3.23131 1.85377 3.3188 1.73837 3.52114L0.0629601 6.45861C-0.0524421 6.66096 -0.0055358 6.91818 0.173632 7.06548L1.17751 7.89081C1.58493 8.22577 1.76404 8.76143 1.71566 9.29048C1.67122 9.77643 1.67087 10.268 1.7163 10.7587C1.7654 11.2891 1.58657 11.8266 1.17808 12.1624L0.242596 12.9315C0.0634284 13.0788 0.016522 13.336 0.131924 13.5384L1.80734 16.4759C1.92274 16.6782 2.16626 16.7657 2.38186 16.6823L3.5076 16.2467C3.99916 16.0566 4.54842 16.1685 4.97762 16.4768C5.38001 16.7657 5.8066 17.0139 6.25082 17.2195C6.72942 17.441 7.09984 17.8666 7.18291 18.3927L7.37352 19.5996C7.40995 19.8303 7.60657 20 7.83737 20ZM9.57085 13.1528C11.3004 13.1528 12.7025 11.7335 12.7025 9.98275C12.7025 8.23196 11.3004 6.81267 9.57085 6.81267C7.84127 6.81267 6.43918 8.23196 6.43918 9.98275C6.43918 11.7335 7.84127 13.1528 9.57085 13.1528Z" fill="#254671"/>
</svg>
