<svg width="17" height="20" viewBox="0 0 17 20" fill="none" xmlns="http://www.w3.org/2000/svg">
<path d="M8.71505 11.4923L16.136 6.44629C16.4902 6.20544 16.4902 5.51802 16.136 5.27717L8.71505 0.231168C8.57975 0.139171 8.4205 0.139171 8.2852 0.231168L0.864291 5.27717C0.510081 5.51802 0.51008 6.20544 0.86429 6.44629L8.2852 11.4923C8.4205 11.5843 8.57975 11.5843 8.71505 11.4923Z" fill="#254671"/>
<path d="M0.550992 8.00833L1.08524 8.98258C1.16125 9.12119 1.26904 9.23981 1.39977 9.3287L8.5 14.1566L15.6002 9.3287C15.731 9.23981 15.8388 9.12119 15.9148 8.98258L16.449 8.00833C16.8492 8.28045 17 8.76177 17 9.1577C17 9.55363 16.8492 10.035 16.449 10.3071L9.0281 15.3531C8.70068 15.5757 8.29932 15.5757 7.97191 15.3531L0.550992 10.3071C0.150797 10.035 0 9.55363 0 9.1577C0 8.76177 0.150798 8.28045 0.550992 8.00833Z" fill="#254671"/>
<path d="M0.550992 11.6505L1.08524 12.6247C1.16125 12.7633 1.26904 12.8819 1.39977 12.9708L8.5 17.7988L15.6002 12.9708C15.731 12.8819 15.8388 12.7633 15.9148 12.6247L16.449 11.6505C16.8492 11.9226 17 12.4039 17 12.7998C17 13.1958 16.8492 13.6771 16.449 13.9492L9.0281 18.9952C8.70068 19.2178 8.29932 19.2178 7.97191 18.9952L0.550992 13.9492C0.150797 13.6771 0 13.1958 0 12.7998C0 12.4039 0.150798 11.9226 0.550992 11.6505Z" fill="#254671"/>
</svg>
