<svg width="11" height="10" viewBox="0 0 11 10" fill="none" xmlns="http://www.w3.org/2000/svg">
<path d="M4.88826 5.12562C5.13978 4.86502 5.13978 4.44251 4.88826 4.18192L1.85727 1.04156C1.73649 0.916417 1.57267 0.846112 1.40185 0.846112H0.644106C0.383608 0.846112 0.148761 1.00869 0.0490729 1.25805C-0.0506147 1.5074 0.00448764 1.79442 0.188687 1.98526L1.99557 4.36502L1.99261 4.94558L0.188687 7.32228C0.00448764 7.51312 -0.0506147 7.80014 0.0490729 8.04949C0.148761 8.29884 0.383608 8.46143 0.644106 8.46143H1.40185C1.57267 8.46143 1.73649 8.39112 1.85727 8.26598L4.88826 5.12562Z" fill="black"/>
<path d="M10.7797 5.23052C11.0731 4.91202 11.0731 4.39561 10.7797 4.07711L7.24352 0.238894C7.1026 0.0859415 6.91148 1.25536e-05 6.7122 1.25536e-05H5.82816C5.52424 1.25536e-05 5.25026 0.198724 5.13395 0.503488C5.01765 0.808251 5.08194 1.15905 5.29684 1.39231L7.40486 4.3009L7.40141 5.01047L5.29684 7.91532C5.08194 8.14858 5.01765 8.49938 5.13395 8.80414C5.25026 9.10891 5.52424 9.30762 5.82816 9.30762H6.7122C6.91148 9.30762 7.1026 9.22169 7.24352 9.06874L10.7797 5.23052Z" fill="#808080"/>
</svg>
